<svg xmlns="http://www.w3.org/2000/svg" viewBox="0 0 329.77 312.79"><defs><style>.cls-1{font-size:20px;font-family:Gilroy-ExtraBold, Gilroy;font-weight:800;}.cls-1,.cls-2{fill:#231f20;}.cls-2{font-size:182.87px;font-family:HelloRegular, Hello;}.cls-3{fill:none;stroke:#231f20;stroke-linecap:round;stroke-linejoin:round;stroke-width:5px;}</style></defs><g id="Layer_2" data-name="Layer 2"><g id="Layer_1-2" data-name="Layer 1"><text class="cls-1" transform="translate(167.81 307.38) rotate(-5.62)"> </text><text class="cls-1" transform="translate(182.02 305.63) rotate(-12.24)">S</text><text class="cls-1" transform="translate(202.96 300.39) rotate(-20.54)">a</text><text class="cls-1" transform="matrix(0.88, -0.47, 0.47, 0.88, 223.19, 291.99)">r</text><text class="cls-1" transform="translate(237.58 283.92) rotate(-35.01)">a</text><text class="cls-1" transform="matrix(0.73, -0.68, 0.68, 0.73, 255.21, 270.71)">h</text><text class="cls-1" transform="matrix(0.65, -0.76, 0.76, 0.65, 270.02, 255.86)"> </text><text class="cls-1" transform="translate(278.99 244.73) rotate(-56.1)">T</text><text class="cls-1" transform="translate(289.08 228.73) rotate(-62.56)">r</text><text class="cls-1" transform="matrix(0.35, -0.94, 0.94, 0.35, 296.32, 213.88)">a</text><text class="cls-1" transform="matrix(0.21, -0.98, 0.98, 0.21, 303.28, 193)">n</text><text class="cls-2" transform="translate(84.79 202.63) scale(1.27 1)">st</text><path class="cls-3" d="M155.19,307.88A152.69,152.69,0,1,1,307.88,155.19"/><text/></g></g></svg>